# xmcd
#
# Track frame offsets:
#	150
#	11834
#	34631
#	45785
#	68753
#	81783
#	95201
#	114777
#	138012
#	169890
#	184773
#	200351
#	218177
#	241713
#	254535
#	264424
#	279115
#	290984
#
# Disc length: 4180
#
# Revision: 1
# Processed by: cddbd v1.5.1PL0 Copyright (c) Steve Scherf et al.
# Submitted via: dBpowerAMP V4.0
# Normalized: r0:TDELIM( - )
#
DISCID=f7105212
DTITLE=Various Artist - Born With The Blues
DYEAR=1900
DGENRE=Blues
TTITLE0=BB King - Paying the cost to be the boss
TTITLE1=Howlin Wolf - The red rooster
TTITLE2=John Lee Hooker - Boom boom
TTITLE3=Etta James - Stormy Monday
TTITLE4=Bo Didley - Cracklin
TTITLE5=T Bone Walker - T Bone shuffle
TTITLE6=BB King - How blue can you get
TTITLE7=Howlin Wolf - Evil
TTITLE8=Howlin Wolf - Fourty four
TTITLE9=Buddy Guy - Woman Blues
TTITLE10=Bo Didley - Roadrunner
TTITLE11=John Lee Hooker - House rent boogie
TTITLE12=BB King - You done lost your good thing
TTITLE13=T Bone Walker - Its a low down dirty deal
TTITLE14=Buddy Guy - First time i met the blues
TTITLE15=Etta James - Rock me baby
TTITLE16=John Lee Hooker - Crawlin Kingsnake
TTITLE17=BB King - Everyday i have the blues
EXTD=Compilation
EXTT0=
EXTT1=
EXTT2=
EXTT3=
EXTT4=
EXTT5=
EXTT6=
EXTT7=
EXTT8=
EXTT9=
EXTT10=
EXTT11=
EXTT12=
EXTT13=
EXTT14=
EXTT15=
EXTT16=
EXTT17=
PLAYORDER=
